<svg fill="none" height="30" viewBox="0 0 30 30" width="30" xmlns="http://www.w3.org/2000/svg"><path d="m9.29 15.71c.09296.0937.20356.1681.32542.2189s.25257.0769.38458.0769c.132 0 .2627-.0261.3846-.0769.1218-.0508.2324-.1252.3254-.2189l3.29-3.3v7.59c0 .2652.1054.5196.2929.7071s.4419.2929.7071.2929.5196-.1054.7071-.2929.2929-.4419.2929-.7071v-7.59l3.29 3.3c.1883.1883.4437.2941.71.2941s.5217-.1058.71-.2941.2941-.4437.2941-.71-.1058-.5217-.2941-.71l-5-5c-.0951-.09104-.2073-.16241-.33-.21-.1197-.05291-.2491-.08023-.38-.08023s-.2603.02732-.38.08023c-.1228.04759-.2349.11896-.33.21l-5 5c-.09373.093-.16813.2036-.21889.3254-.05077.1219-.07691.2526-.07691.3846s.02614.2627.07691.3846c.05076.1218.12516.2324.21889.3254z" fill="#e9e8eb"/></svg>