<svg fill="none" height="30" viewBox="0 0 30 30" width="30" xmlns="http://www.w3.org/2000/svg"><path d="m20.9199 9.62c-.1014-.24435-.2956-.43853-.54-.54-.1202-.05124-.2493-.07842-.38-.08h-9.99996c-.26522 0-.51957.10536-.70711.29289-.18753.18754-.29289.44189-.29289.70711 0 .2652.10536.5196.29289.7071.18754.1875.44189.2929.70711.2929h7.58996l-8.29996 8.29c-.09373.093-.16812.2036-.21889.3254-.05077.1219-.07691.2526-.07691.3846s.02614.2627.07691.3846c.05077.1218.12516.2324.21889.3254.09296.0937.20356.1681.32542.2189s.25257.0769.38458.0769c.13206 0 .26276-.0261.38456-.0769.1219-.0508.2325-.1252.3254-.2189l8.29-8.3v7.59c0 .2652.1054.5196.2929.7071.1876.1875.4419.2929.7071.2929.2653 0 .5196-.1054.7071-.2929.1876-.1875.2929-.4419.2929-.7071v-10c-.0015-.13068-.0287-.25978-.08-.38z" fill="#e9e8eb"/></svg>