<svg fill="none" height="30" viewBox="0 0 30 30" width="30" xmlns="http://www.w3.org/2000/svg"><path d="m20.71 14.29c-.093-.0937-.2036-.1681-.3254-.2189-.1219-.0508-.2526-.0769-.3846-.0769s-.2627.0261-.3846.0769c-.1218.0508-.2324.1252-.3254.2189l-3.29 3.3v-7.59c0-.26522-.1054-.51957-.2929-.70711-.1875-.18753-.4419-.29289-.7071-.29289s-.5196.10536-.7071.29289c-.1875.18754-.2929.44189-.2929.70711v7.59l-3.29-3.3c-.1883-.1883-.4437-.2941-.71-.2941s-.52169.1058-.71.2941c-.1883.1883-.29409.4437-.29409.71s.10579.5217.29409.71l5 5c.0951.091.2073.1624.33.21.1197.0529.2491.0802.38.0802s.2603-.0273.38-.0802c.1228-.0476.2349-.119.33-.21l5-5c.0937-.093.1681-.2036.2189-.3254.0508-.1219.0769-.2526.0769-.3846s-.0261-.2627-.0769-.3846c-.0508-.1218-.1252-.2324-.2189-.3254z" fill="#e9e8eb"/></svg>