<svg fill="none" height="106" viewBox="0 0 106 106" width="106" xmlns="http://www.w3.org/2000/svg"><g fill="#e9e8eb"><path d="m53 0c29.2711 0 53 23.7289 53 53s-23.7289 53-53 53-53-23.7289-53-53 23.7289-53 53-53zm0 6c-25.9574 0-47 21.0426-47 47s21.0426 47 47 47 47-21.0426 47-47-21.0426-47-47-47z"/><path d="m73.3521 38.3292c-.275-.2773-.6022-.4974-.9627-.6476s-.7472-.2275-1.1377-.2275-.7772.0773-1.1377.2275-.6877.3703-.9627.6476l-22.0396 22.0691-9.2596-9.2891c-.2855-.2759-.6226-.4927-.992-.6383-.3693-.1456-.7637-.217-1.1607-.2101-.3969.0069-.7887.0919-1.1528.2501-.3641.1583-.6934.3867-.9693.6722-.2758.2856-.4927.6226-.6383.992-.1455.3694-.2169.7638-.21 1.1607.0068.397.0918.7887.2501 1.1528.1582.3641.3866.6935.6722.9693l11.36 11.36c.275.2773.6022.4974.9627.6476s.7472.2275 1.1377.2275.7772-.0773 1.1377-.2275.6877-.3703.9627-.6476l24.14-24.14c.3003-.277.54-.6132.7039-.9875.1639-.3742.2485-.7783.2485-1.1869 0-.4085-.0846-.8126-.2485-1.1869-.1639-.3742-.4036-.7104-.7039-.9874z"/></g></svg>