<svg fill="none" height="200" viewBox="0 0 200 200" width="200" xmlns="http://www.w3.org/2000/svg" xmlns:xlink="http://www.w3.org/1999/xlink"><clipPath id="a"><path d="m0 0h200v200h-200z"/></clipPath><g clip-path="url(#a)"><circle cx="100" cy="100" fill="#383343" r="100"/><g fill="#e9e8eb"><path clip-rule="evenodd" d="m112.284 81.8737h-26.905v7.9527c.0057-1.9165 1.5612-3.4684 3.4791-3.4684h16.6999c7.43 0 13.453 6.0229 13.453 13.4526 0 7.4294-6.023 13.4524-13.453 13.4524h-16.6999c-1.9179 0-3.4734-1.552-3.4791-3.468v7.952h26.905c9.906 0 17.937-8.03 17.937-17.9365 0-9.9062-8.031-17.9368-17.937-17.9368z" fill-rule="evenodd"/><path clip-rule="evenodd" d="m112.284 117.747h-26.905v7.953c.0057-1.916 1.5612-3.468 3.4791-3.468h16.6999c7.43 0 13.453 6.023 13.453 13.452 0 7.43-6.023 13.453-13.453 13.453h-16.6999c-1.9179 0-3.4734-1.552-3.4791-3.469v7.953h26.905c9.906 0 17.937-8.031 17.937-17.937s-8.031-17.937-17.937-17.937z" fill-rule="evenodd"/><path clip-rule="evenodd" d="m112.284 46h-26.905v7.9528c.0057-1.9166 1.5612-3.4685 3.4791-3.4685h16.6999c7.43 0 13.453 6.023 13.453 13.4527 0 7.4296-6.023 13.4526-13.453 13.4526h-16.6999c-1.9179 0-3.4734-1.5519-3.4791-3.4685v7.9526h26.905c9.906 0 17.937-8.0306 17.937-17.9369 0-9.9062-8.031-17.9368-17.937-17.9368z" fill-rule="evenodd"/><path d="m70.1054 49.679c-2.2697-.33-2.0276-3.679.266-3.679h15.0075v107.621h-15.0075c-2.2936 0-2.5357-3.349-.266-3.679 1.8178-.264 3.1662-1.823 3.1662-3.66v-6.114-13.452-26.9055-26.9052-13.4527-6.1139c0-1.8369-1.3484-3.3955-3.1662-3.6597z"/><circle cx="145.916" cy="140.169" r="4.48421"/></g></g></svg>