<svg width="200" height="200" viewBox="0 0 200 200" fill="none" xmlns="http://www.w3.org/2000/svg">
<g clip-path="url(#clip0_156_172)">
<circle cx="100" cy="100" r="100" fill="#383343"/>
<path fill-rule="evenodd" clip-rule="evenodd" d="M113.702 79.7822H83.6919V119.795H113.702C124.751 119.795 133.708 110.838 133.708 99.7886C133.708 88.7394 124.751 79.7822 113.702 79.7822ZM87.5725 84.7839C85.4293 84.7839 83.6919 86.5213 83.6919 88.6645V110.913C83.6919 113.056 85.4293 114.794 87.5725 114.794H106.199C114.486 114.794 121.204 108.076 121.204 99.7888C121.204 91.5018 114.486 84.7839 106.199 84.7839H87.5725Z" fill="#E9E8EB"/>
<path fill-rule="evenodd" clip-rule="evenodd" d="M113.702 119.795H83.6919V159.808H113.702C124.751 159.808 133.708 150.851 133.708 139.802C133.708 128.752 124.751 119.795 113.702 119.795ZM87.5725 124.797C85.4293 124.797 83.6919 126.534 83.6919 128.677V150.926C83.6919 153.069 85.4293 154.807 87.5725 154.807H106.199C114.486 154.807 121.204 148.089 121.204 139.802C121.204 131.515 114.486 124.797 106.199 124.797H87.5725Z" fill="#E9E8EB"/>
<path fill-rule="evenodd" clip-rule="evenodd" d="M113.702 39.7692H83.6919V79.7822H113.702C124.751 79.7822 133.708 70.825 133.708 59.7757C133.708 48.7264 124.751 39.7692 113.702 39.7692ZM87.5725 44.771C85.4293 44.771 83.6919 46.5084 83.6919 48.6515V70.9001C83.6919 73.0433 85.4293 74.7807 87.5725 74.7807H106.199C114.486 74.7807 121.204 68.0628 121.204 59.7758C121.204 51.4889 114.486 44.771 106.199 44.771H87.5725Z" fill="#E9E8EB"/>
<path d="M66.6561 43.8727C64.1244 43.5046 64.3945 39.7692 66.9528 39.7692H83.6919V159.808H66.9528C64.3945 159.808 64.1244 156.073 66.6561 155.705V155.705C68.6837 155.41 70.1875 153.672 70.1875 151.623V144.803V129.798V99.7887V69.7789V54.7741V47.9547C70.1875 45.9058 68.6837 44.1675 66.6561 43.8727V43.8727Z" fill="#E9E8EB"/>
<circle cx="151.214" cy="144.803" r="5.00162" fill="#E9E8EB"/>
</g>
<defs>
<clipPath id="clip0_156_172">
<rect width="200" height="200" fill="white"/>
</clipPath>
</defs>
</svg>
