<svg width="200" height="200" viewBox="0 0 200 200" fill="none" xmlns="http://www.w3.org/2000/svg">
<g clip-path="url(#clip0_156_172)">
<circle cx="100" cy="100" r="100" fill="#383343"/>
<path fill-rule="evenodd" clip-rule="evenodd" d="M111.024 83.7328H86.8785V115.927H111.024C119.915 115.927 127.121 108.72 127.121 99.83C127.121 90.9397 119.915 83.7328 111.024 83.7328ZM90.0008 87.7572C88.2765 87.7572 86.8786 89.1551 86.8786 90.8795V108.781C86.8786 110.505 88.2765 111.903 90.0008 111.903H104.988C111.656 111.903 117.061 106.498 117.061 99.83C117.061 93.1624 111.656 87.7572 104.988 87.7572H90.0008Z" fill="#E9E8EB"/>
<path fill-rule="evenodd" clip-rule="evenodd" d="M111.024 115.927H86.8785V148.121H111.024C119.915 148.121 127.121 140.914 127.121 132.024C127.121 123.134 119.915 115.927 111.024 115.927ZM90.0008 119.951C88.2765 119.951 86.8786 121.349 86.8786 123.074V140.975C86.8786 142.699 88.2765 144.097 90.0008 144.097H104.988C111.656 144.097 117.061 138.692 117.061 132.024C117.061 125.357 111.656 119.951 104.988 119.951H90.0008Z" fill="#E9E8EB"/>
<path fill-rule="evenodd" clip-rule="evenodd" d="M111.024 51.5385H86.8785V83.7328H111.024C119.915 83.7328 127.121 76.5258 127.121 67.6356C127.121 58.7454 119.915 51.5385 111.024 51.5385ZM90.0008 55.5629C88.2765 55.5629 86.8786 56.9608 86.8786 58.6852V76.5863C86.8786 78.3107 88.2765 79.7086 90.0008 79.7086H104.988C111.656 79.7086 117.061 74.3034 117.061 67.6357C117.061 60.9681 111.656 55.5629 104.988 55.5629H90.0008Z" fill="#E9E8EB"/>
<path d="M73.1716 54.8401C71.1346 54.544 71.3519 51.5385 73.4103 51.5385H86.8786V148.121H73.4103C71.3519 148.121 71.1346 145.116 73.1716 144.82C74.8029 144.583 76.013 143.184 76.013 141.535V136.049V123.976V99.83V75.6842V63.6113V58.1245C76.013 56.4759 74.8029 55.0773 73.1716 54.8401Z" fill="#E9E8EB"/>
<circle cx="141.206" cy="136.049" r="4.02429" fill="#E9E8EB"/>
</g>
<defs>
<clipPath id="clip0_156_172">
<rect width="200" height="200" fill="white"/>
</clipPath>
</defs>
</svg>
