<svg fill="none" height="130" viewBox="0 0 130 130" width="130" xmlns="http://www.w3.org/2000/svg"><g fill="#e9e8eb"><g clip-rule="evenodd" fill-rule="evenodd"><path d="m75.2368 49.8947h-22.421v6.6362c0-1.6012 1.298-2.8992 2.8993-2.8992h13.9165c6.1914 0 11.2105 5.0191 11.2105 11.2105s-5.0191 11.2105-11.2105 11.2105h-13.9165c-1.6013 0-2.8993-1.298-2.8993-2.8993v6.6361h22.421c8.2553 0 14.9474-6.6922 14.9474-14.9474s-6.6922-14.9474-14.9474-14.9474z"/><path d="m75.2368 79.7894h-22.421v6.6362c0-1.6012 1.298-2.8992 2.8993-2.8992h13.9165c6.1914 0 11.2105 5.0191 11.2105 11.2105 0 6.1911-5.0191 11.2101-11.2105 11.2101h-13.9165c-1.6013 0-2.8993-1.298-2.8993-2.899v6.636h22.421c8.2553 0 14.9474-6.692 14.9474-14.9472s-6.6922-14.9474-14.9474-14.9474z"/><path d="m75.2368 20h-22.421v6.6362c0-1.6012 1.298-2.8993 2.8993-2.8993h13.9165c6.1914 0 11.2105 5.0192 11.2105 11.2106s-5.0191 11.2105-11.2105 11.2105h-13.9165c-1.6013 0-2.8993-1.2981-2.8993-2.8993v6.636h22.421c8.2553 0 14.9474-6.6921 14.9474-14.9473s-6.6922-14.9474-14.9474-14.9474z"/></g><path d="m40.0879 23.0658c-1.8915-.275-1.6897-3.0658.2217-3.0658h12.5062v89.684h-12.5062c-1.9114 0-2.1132-2.791-.2217-3.066 1.5148-.22 2.6384-1.519 2.6384-3.049v-5.0953-11.2105-22.4211-22.421-11.2106-5.0949c0-1.5308-1.1236-2.8296-2.6384-3.0498z"/><circle cx="103.263" cy="98.4738" r="3.73684"/></g></svg>