<svg fill="none" height="24" viewBox="0 0 24 24" width="24" xmlns="http://www.w3.org/2000/svg"><path d="m19.4401 12.9999c-.22 0-.45-.07-.67-.12-.4455-.0982-.8833-.2285-1.31-.39-.4639-.1688-.9739-.16-1.4317.0246s-.8312.532-1.0483.9754l-.22.45c-.974-.5419-1.869-1.2148-2.66-2-.7852-.791-1.4582-1.686-2-2.66003l.42-.28c.4434-.21709.7908-.59047.9754-1.04831s.1934-.96778.0246-1.43169c-.1588-.42758-.2891-.8652-.39-1.31-.05-.22-.09-.45-.12-.68-.1214-.70438-.4904-1.34226-1.04038-1.79876-.55-.45651-1.24492-.70163-1.95962-.69124h-3c-.43097-.00405-.85775.08481-1.25129.26053s-.7446.43416-1.02928.75775-.49629.70471-.62044 1.11743-.15791.84735-.09899 1.27429c.53274 4.18938 2.44603 8.08183 5.43765 11.06263 2.99165 2.9808 6.89105 4.8799 11.08235 5.3974h.38c.7374.001 1.4494-.2695 2-.76.3164-.283.5691-.6299.7415-1.0177.1723-.3879.2605-.8079.2585-1.2323v-3c-.0122-.6946-.2652-1.3635-.7157-1.8924-.4504-.5289-1.0705-.885-1.7543-1.0076zm.5 6c-.0002.142-.0306.2823-.0892.4116s-.1441.2447-.2508.3384c-.1114.097-.242.1694-.3833.2125-.1413.043-.2901.0558-.4367.0375-3.7451-.4802-7.2238-2.1935-9.88728-4.8697-2.66352-2.6762-4.36031-6.16299-4.82272-9.91033-.01591-.14648-.00197-.29467.041-.43561s.11407-.2717.209-.38439c.09371-.10667.20906-.19216.33838-.25078.12932-.05863.26964-.08904.41162-.08922h3c.23255-.00518.45962.07088.64214.21507s.30907.3475.35786.57493c.04.27333.09.54333.15.81.11552.52714.26926 1.04518.46 1.55l-1.4.65c-.1197.05492-.22738.13294-.31684.22959-.08947.09665-.15896.21002-.20449.3336s-.0662.25494-.06082.38653c.00537.13159.03669.26082.09215.38028 1.4392 3.08273 3.9172 5.56083 7 7.00003.2435.1.5165.1.76 0 .1247-.0446.2393-.1136.3372-.2028.0978-.0893.177-.1971.2328-.3172l.62-1.4c.517.1848 1.0446.3385 1.58.46.2667.06.5367.11.81.15.2274.0488.4307.1753.5749.3578s.2203.4096.2151.6422z" fill="#e9e8eb"/></svg>