<svg fill="none" height="30" viewBox="0 0 30 30" width="30" xmlns="http://www.w3.org/2000/svg"><path d="m21.7902 12.0783-9.66-5.61998c-.5227-.30184-1.116-.45996-1.7196-.45831-.6036.00166-1.19601.16304-1.71706.46775-.52105.3047-.95217.74188-1.24958 1.26713s-.45051 1.11986-.44375 1.72343v11.11998c0 .9071.36032 1.7769 1.0017 2.4183.64137.6414 1.51126 1.0017 2.41829 1.0017.6005-.001 1.1901-.1596 1.71-.46l9.66-5.54c.5191-.3004.95-.732 1.2496-1.2515.2996-.5196.4573-1.1088.4573-1.7085s-.1577-1.1889-.4573-1.7084c-.2996-.5196-.7305-.9512-1.2496-1.2516z" fill="#e9e8eb"/></svg>